<?xml version="1.0" encoding="UTF-8" standalone="no"?>
<svg
   xmlns:dc="http://purl.org/dc/elements/1.1/"
   xmlns:cc="http://creativecommons.org/ns#"
   xmlns:rdf="http://www.w3.org/1999/02/22-rdf-syntax-ns#"
   xmlns:svg="http://www.w3.org/2000/svg"
   xmlns="http://www.w3.org/2000/svg"
   xmlns:sodipodi="http://sodipodi.sourceforge.net/DTD/sodipodi-0.dtd"
   xmlns:inkscape="http://www.inkscape.org/namespaces/inkscape"
   width="210mm"
   height="297mm"
   viewBox="0 0 210 297"
   version="1.1"
   id="svg8"
   inkscape:version="1.0beta1 (32d4812, 2019-09-19)"
   sodipodi:docname="Bauble-3D.svg">
  <defs
     id="defs2" />
  <sodipodi:namedview
     id="base"
     pagecolor="#ffffff"
     bordercolor="#666666"
     borderopacity="1.0"
     inkscape:pageopacity="0.0"
     inkscape:pageshadow="2"
     inkscape:zoom="0.98994949"
     inkscape:cx="254.61796"
     inkscape:cy="189.05559"
     inkscape:document-units="mm"
     inkscape:current-layer="layer1"
     inkscape:document-rotation="0"
     showgrid="false"
     inkscape:snap-global="false"
     inkscape:window-width="1280"
     inkscape:window-height="684"
     inkscape:window-x="0"
     inkscape:window-y="23"
     inkscape:window-maximized="0" />
  <metadata
     id="metadata5">
    <rdf:RDF>
      <cc:Work
         rdf:about="">
        <dc:format>image/svg+xml</dc:format>
        <dc:type
           rdf:resource="http://purl.org/dc/dcmitype/StillImage" />
        <dc:title></dc:title>
      </cc:Work>
    </rdf:RDF>
  </metadata>
  <g
     inkscape:label="Layer 1"
     inkscape:groupmode="layer"
     id="layer1">
    <g
       id="g895">
      <g
         id="g877"
         transform="rotate(-180,30.037833,33.932686)">
        <path
           inkscape:connector-curvature="0"
           d="m 22.958679,0.05 c -1.648061,0.4076896 -2.864942,1.8858606 -2.864942,3.6633426 v 5.871476 A 29.987856,29.962956 0 0 0 0.05000003,37.852861 29.987856,29.962956 0 0 0 30.037834,67.815372 29.987856,29.962956 0 0 0 60.025666,37.852861 29.987856,29.962956 0 0 0 40.003116,9.5925696 v -5.879227 c 0,-1.777192 -1.216337,-3.255397 -2.863908,-3.6633426 z"
           style="opacity:1;fill:none;stroke:#000000;stroke-width:0.1;stroke-miterlimit:4;stroke-dasharray:none;stroke-opacity:1;stop-opacity:1"
           id="path833" />
        <rect
           y="0.034332901"
           x="28.534332"
           height="33.948555"
           width="3.0160067"
           id="rect871"
           style="fill:none;stroke:#000000;stroke-width:0.0686658;stroke-miterlimit:4;stroke-dasharray:none;stroke-opacity:1" />
      </g>
      <g
         id="g885"
         transform="translate(-21.226136,28.865109)">
        <g
           transform="translate(60,9)"
           id="g845">
          <path
             id="path841"
             style="fill:none;stroke:#000000;stroke-width:0.0741265"
             d="m 29.988726,-8.9629368 c -3.8503,0 -6.94997,3.0995392 -6.94997,6.9499633 V 0.75740005 C 21.343056,1.1310835 20.080801,2.6343822 20.080801,4.4455468 V 10.317023 A 29.987856,29.962956 0 0 0 0.03706325,38.585065 29.987856,29.962956 0 0 0 30.024896,68.547576 29.987856,29.962956 0 0 0 60.012726,38.585065 29.987856,29.962956 0 0 0 39.990176,10.324775 V 4.4455468 c 0,-1.8444706 -1.30872,-3.3704283 -3.05149,-3.70830055 V -2.0129735 c 0,-3.8504241 -3.09966,-6.9499633 -6.94996,-6.9499633 z"
             inkscape:connector-curvature="0" />
          <path
             inkscape:connector-curvature="0"
             id="path843"
             style="fill:none;stroke:#000000;stroke-width:0.381581"
             d="m 113.21875,-24.285156 c -8.11214,0 -14.644531,6.530435 -14.644531,14.6425779 V 0.18945312 H 128.42578 V -9.6425781 c 0,-8.1121429 -6.53044,-14.6425779 -14.64258,-14.6425779 z"
             transform="scale(0.26458333)" />
        </g>
        <rect
           style="fill:none;stroke:#000000;stroke-width:0.0686694;stroke-miterlimit:4;stroke-dasharray:none;stroke-opacity:1"
           id="rect873"
           width="3.0163269"
           height="33.948555"
           x="88.534332"
           y="43.534336" />
      </g>
    </g>
  </g>
</svg>
