<?xml version="1.0" encoding="UTF-8" standalone="no"?>
<svg
   xmlns:dc="http://purl.org/dc/elements/1.1/"
   xmlns:cc="http://creativecommons.org/ns#"
   xmlns:rdf="http://www.w3.org/1999/02/22-rdf-syntax-ns#"
   xmlns:svg="http://www.w3.org/2000/svg"
   xmlns="http://www.w3.org/2000/svg"
   xmlns:sodipodi="http://sodipodi.sourceforge.net/DTD/sodipodi-0.dtd"
   xmlns:inkscape="http://www.inkscape.org/namespaces/inkscape"
   sodipodi:docname="Bauble.svg"
   inkscape:version="1.0beta1 (32d4812, 2019-09-19)"
   id="svg8"
   version="1.1"
   viewBox="0 0 210 297"
   height="297mm"
   width="210mm">
  <defs
     id="defs2" />
  <sodipodi:namedview
     inkscape:window-maximized="0"
     inkscape:window-y="23"
     inkscape:window-x="0"
     inkscape:window-height="684"
     inkscape:window-width="1280"
     inkscape:snap-global="false"
     showgrid="false"
     inkscape:document-rotation="0"
     inkscape:current-layer="layer1"
     inkscape:document-units="mm"
     inkscape:cy="156.60503"
     inkscape:cx="165.36056"
     inkscape:zoom="1.4"
     inkscape:pageshadow="2"
     inkscape:pageopacity="0.0"
     borderopacity="1.0"
     bordercolor="#666666"
     pagecolor="#ffffff"
     id="base" />
  <metadata
     id="metadata5">
    <rdf:RDF>
      <cc:Work
         rdf:about="">
        <dc:format>image/svg+xml</dc:format>
        <dc:type
           rdf:resource="http://purl.org/dc/dcmitype/StillImage" />
        <dc:title></dc:title>
      </cc:Work>
    </rdf:RDF>
  </metadata>
  <g
     id="layer1"
     inkscape:groupmode="layer"
     inkscape:label="Layer 1">
    <g
       transform="translate(0,9)"
       id="g857">
      <path
         id="path833"
         style="fill:none;stroke:#000000;stroke-width:0.0741265"
         d="m 29.988726,-8.9629368 c -3.8503,0 -6.94997,3.0995392 -6.94997,6.9499633 V 0.75740005 C 21.343056,1.1310835 20.080801,2.6343822 20.080801,4.4455468 V 10.317023 A 29.987856,29.962956 0 0 0 0.03706325,38.585065 29.987856,29.962956 0 0 0 30.024896,68.547576 29.987856,29.962956 0 0 0 60.012726,38.585065 29.987856,29.962956 0 0 0 39.990176,10.324775 V 4.4455468 c 0,-1.8444706 -1.30872,-3.3704283 -3.05149,-3.70830055 V -2.0129735 c 0,-3.8504241 -3.09966,-6.9499633 -6.94996,-6.9499633 z"
         inkscape:connector-curvature="0" />
      <path
         inkscape:connector-curvature="0"
         id="rect848"
         style="fill:none;stroke:#000000;stroke-width:0.381581"
         d="m 113.21875,-24.285156 c -8.11214,0 -14.644531,6.530435 -14.644531,14.6425779 V 0.18945312 H 128.42578 V -9.6425781 c 0,-8.1121429 -6.53044,-14.6425779 -14.64258,-14.6425779 z"
         transform="scale(0.26458333)" />
    </g>
  </g>
</svg>
