<?xml version="1.0" encoding="UTF-8" standalone="no"?>
<!-- Created with Inkscape (http://www.inkscape.org/) -->

<svg
   xmlns:dc="http://purl.org/dc/elements/1.1/"
   xmlns:cc="http://creativecommons.org/ns#"
   xmlns:rdf="http://www.w3.org/1999/02/22-rdf-syntax-ns#"
   xmlns:svg="http://www.w3.org/2000/svg"
   xmlns="http://www.w3.org/2000/svg"
   xmlns:sodipodi="http://sodipodi.sourceforge.net/DTD/sodipodi-0.dtd"
   xmlns:inkscape="http://www.inkscape.org/namespaces/inkscape"
   id="svg4310"
   version="1.1"
   inkscape:version="0.91 r13725"
   width="420mm"
   height="297mm"
   viewBox="0 0 1488.189 1052.3622"
   sodipodi:docname="Douglas_Dakota_NoProps.svg">
  <metadata
     id="metadata4316">
    <rdf:RDF>
      <cc:Work
         rdf:about="">
        <dc:format>image/svg+xml</dc:format>
        <dc:type
           rdf:resource="http://purl.org/dc/dcmitype/StillImage" />
        <dc:title></dc:title>
      </cc:Work>
    </rdf:RDF>
  </metadata>
  <defs
     id="defs4314" />
  <sodipodi:namedview
     pagecolor="#ffffff"
     bordercolor="#666666"
     borderopacity="1"
     objecttolerance="10"
     gridtolerance="10"
     guidetolerance="10"
     inkscape:pageopacity="0"
     inkscape:pageshadow="2"
     inkscape:window-width="1274"
     inkscape:window-height="698"
     id="namedview4312"
     showgrid="false"
     inkscape:zoom="1.4142136"
     inkscape:cx="742.13312"
     inkscape:cy="816.45682"
     inkscape:window-x="0"
     inkscape:window-y="0"
     inkscape:window-maximized="0"
     inkscape:current-layer="svg4310"
     units="mm"
     inkscape:document-units="mm" />
  <path
     style="fill:none;stroke:#000000;stroke-width:0.354;stroke-miterlimit:4;stroke-dasharray:none;stroke-opacity:1"
     d="M 743.41797 46.537109 C 739.02585 46.653498 734.72211 49.178667 729.20898 54.472656 C 716.93997 66.253949 707.95366 85.793904 700.44336 117.01367 C 698.75251 124.04237 696.30761 132.81624 695.00977 136.51172 C 690.52217 149.28972 686.74622 175.34627 684.30078 210.42188 C 682.7027 233.3437 681.50764 259.42232 681.49414 271.68359 C 681.48816 277.11812 681.26363 282.89893 680.99414 284.5293 L 680.50391 287.49414 L 660.8457 287.49414 L 641.1875 287.49414 L 641.18164 277.01953 C 641.17902 271.25891 640.95413 263.68329 640.68164 260.18359 L 640.18555 253.82031 L 642.44336 253.85938 C 645.72027 253.91646 645.72907 252.04486 642.48633 244.13281 L 639.68359 237.29883 L 639.42383 221.09375 C 639.17473 205.57507 639.08129 204.7427 637.2168 201.44727 C 634.56674 196.76337 630.93926 195.00781 623.91211 195.00781 C 619.55779 195.00781 618.3296 194.74096 617.93359 193.70898 C 617.7658 193.27174 617.69081 192.83638 617.69531 192.50586 L 617.58008 192.53125 L 615.48047 183.0625 C 614.96627 182.29526 614.06754 180.66218 613.18359 178.85547 C 609.86999 172.08264 605.14511 168.87067 600.2793 170.08398 C 597.33548 170.8181 591.01302 177.51632 589.80273 181.18359 L 588.82031 184.16016 L 588.8125 184.16016 L 586.47852 192.54688 L 586.47852 192.54883 C 586.4254 192.80588 586.35925 193.0784 586.26758 193.36719 C 585.86345 194.64056 585.08863 195.00781 582.80469 195.00781 C 578.69276 195.00781 571.05897 197.11241 568.46289 198.96094 C 564.31972 201.91114 563.79733 204.32901 564.28516 218.32617 L 564.72656 230.97461 L 560.22461 241.50977 C 556.53522 250.14274 555.89877 252.25777 556.70117 253.22461 C 557.23971 253.87352 558.32793 254.23428 559.11914 254.02734 C 559.91035 253.82046 560.56994 254.06367 560.58594 254.56641 C 560.73439 259.21158 560.43924 288.66622 560.24219 288.86328 C 560.10076 289.00471 445.48421 318.62007 305.53906 354.67578 C 115.03361 403.75791 49.802023 420.85667 45.955078 422.7168 C 34.757034 428.13139 23.867233 437.98018 20.035156 446.1582 C 18.177933 450.1217 17.894531 451.72525 17.894531 458.23828 C 17.894531 467.20438 19.188402 470.52402 26.933594 481.42188 C 33.592471 490.79122 41.832737 496.86952 52.691406 500.42188 C 64.509945 504.28821 49.095926 503.92847 356.21875 507.5 C 514.90742 509.3454 646.81028 510.89381 649.33594 510.94141 C 658.75096 511.11854 667.88156 517.82528 672.75586 528.14062 L 675.02344 532.9375 L 675.52734 554.28125 C 677.34551 631.22388 685.24607 734.45801 697.66602 843.5957 C 698.70502 852.72573 699.31642 860.41473 699.02539 860.68359 C 698.73435 860.95242 666.49366 876.19903 627.37891 894.56445 C 588.26417 912.92986 554.25587 929.31785 551.80469 930.98242 C 545.75818 935.08852 538.4352 943.2594 535.39844 949.28906 C 529.92596 960.15498 528.13449 975.48126 531.18945 985.29688 C 534.98182 997.48172 546.28897 1006.2595 564.45508 1011.1211 C 577.7443 1014.678 582.03025 1014.8727 640.39648 1014.5781 C 688.08288 1014.3374 695.81725 1014.1349 698.99414 1013.043 C 701.00714 1012.3511 706.30905 1009.3523 710.77539 1006.3789 L 718.89648 1000.9727 L 721.63867 1004.0977 C 723.14694 1005.8173 728.09771 1011.7596 732.64062 1017.3027 C 738.45272 1024.3946 741.392 1027.3828 742.56055 1027.3828 C 744.3157 1027.3828 749.41282 1022.4879 761.86719 1008.8457 L 769.04688 1000.9824 L 774.48047 1004.4648 C 777.46944 1006.3807 780.91805 1008.7613 782.14258 1009.7539 C 783.36712 1010.7467 786.39037 1012.1846 788.86133 1012.9492 C 792.97721 1014.2228 798.26071 1014.3398 851.84961 1014.3398 C 905.99687 1014.3398 910.84481 1014.2293 917.06445 1012.8652 C 936.88928 1008.5169 950.45213 1000.0662 955.58984 988.86133 C 958.33897 982.86575 959.02097 969.87971 957.03125 961.39844 C 954.192 949.29552 946.0064 937.46418 935.77539 930.67383 C 933.52702 929.18161 900.02793 913.0572 861.33398 894.8418 C 822.64003 876.6264 790.41103 861.37874 789.71289 860.95898 C 788.55001 860.25981 788.56356 859.1351 789.88477 847.54883 C 802.21284 739.43559 810.07789 639.7196 812.01758 566.92773 L 812.90234 533.72852 L 815.52344 528.03125 C 820.37565 517.48285 829.28179 511.03873 839.07812 510.99023 C 841.75428 510.97697 973.6032 509.42678 1132.0742 507.54492 C 1371.6683 504.69974 1421.1351 503.92929 1425.7363 502.9707 C 1437.2194 500.5784 1446.7256 496.21644 1453.6445 490.16406 C 1458.2293 486.15338 1467.1677 473.16818 1469.0918 467.72266 C 1471.0994 462.04126 1470.5108 451.86778 1467.8418 446.13867 C 1464.054 438.00736 1453.7727 428.62563 1442.3379 422.86523 C 1438.769 421.06736 1375.9605 404.59149 1188.5938 356.30664 C 1051.6427 321.01416 936.83621 291.39316 933.4668 290.48242 L 927.33984 288.82617 L 927.33984 271.64648 L 927.33984 254.46484 L 929.34961 253.96094 C 930.45517 253.68349 931.54177 252.98254 931.76367 252.4043 C 931.98546 251.82614 930.46744 247.65797 928.39062 243.14062 L 924.61523 234.92773 L 924.19922 219.51367 C 923.81126 205.13661 923.66209 203.93061 921.99805 201.59766 C 919.54037 198.15213 914.55329 195.94279 907.81445 195.31641 C 903.80048 194.94338 901.99343 194.43318 901.66602 193.58008 C 901.53345 193.23458 901.49364 192.85337 901.5293 192.51953 L 898.24414 181.01562 C 896.26636 175.80102 889.60096 169.72613 885.53711 169.7168 C 881.60432 169.70834 875.74485 175.22724 874.06445 180.52148 C 873.89769 181.04693 873.60743 181.62051 873.29297 182.11133 L 873.33984 182.125 L 870.32422 193.05078 C 870.29637 193.29006 870.24732 193.54156 870.15234 193.78906 C 869.79148 194.72957 868.40376 195.00781 864.08789 195.00781 C 858.14863 195.00781 855.38374 195.97854 852.49414 199.08203 C 849.34408 202.46521 848.94776 204.9645 849.03906 220.80664 L 849.125 235.93359 L 845.94336 243.27344 C 841.7429 252.95807 841.77195 254.00317 846.24219 253.52344 C 847.6705 253.37016 847.72279 253.80942 847.23047 261.85547 C 846.94472 266.52707 846.71094 274.20711 846.71094 278.92188 L 846.71094 287.49414 L 827.02734 287.49414 L 807.34375 287.49414 L 806.89062 278.60156 C 806.64171 273.71046 806.23977 263.12711 805.99805 255.08398 C 804.32903 199.53499 799.02847 152.26898 792.56836 135.32617 C 791.40794 132.28283 789.4575 125.52576 788.23242 120.30859 C 784.79772 105.68221 783.73081 101.86433 780.28906 91.882812 C 772.70853 69.898409 761.9321 53.937911 750.98438 48.482422 C 748.61653 47.302484 746.43679 46.643499 744.29883 46.544922 C 744.00486 46.531368 743.71078 46.52935 743.41797 46.537109 z "
     id="path8019" />
</svg>
