<?xml version="1.0" encoding="UTF-8" standalone="no"?>
<!-- Created with Inkscape (http://www.inkscape.org/) -->

<svg
   xmlns:dc="http://purl.org/dc/elements/1.1/"
   xmlns:cc="http://creativecommons.org/ns#"
   xmlns:rdf="http://www.w3.org/1999/02/22-rdf-syntax-ns#"
   xmlns:svg="http://www.w3.org/2000/svg"
   xmlns="http://www.w3.org/2000/svg"
   xmlns:sodipodi="http://sodipodi.sourceforge.net/DTD/sodipodi-0.dtd"
   xmlns:inkscape="http://www.inkscape.org/namespaces/inkscape"
   id="svg4310"
   version="1.1"
   inkscape:version="0.91 r13725"
   width="420mm"
   height="297mm"
   viewBox="0 0 1488.189 1052.3622"
   sodipodi:docname="Douglas_Dakota.svg">
  <metadata
     id="metadata4316">
    <rdf:RDF>
      <cc:Work
         rdf:about="">
        <dc:format>image/svg+xml</dc:format>
        <dc:type
           rdf:resource="http://purl.org/dc/dcmitype/StillImage" />
        <dc:title />
      </cc:Work>
    </rdf:RDF>
  </metadata>
  <defs
     id="defs4314" />
  <sodipodi:namedview
     pagecolor="#ffffff"
     bordercolor="#666666"
     borderopacity="1"
     objecttolerance="10"
     gridtolerance="10"
     guidetolerance="10"
     inkscape:pageopacity="0"
     inkscape:pageshadow="2"
     inkscape:window-width="1274"
     inkscape:window-height="698"
     id="namedview4312"
     showgrid="false"
     inkscape:zoom="0.35355339"
     inkscape:cx="793.11809"
     inkscape:cy="378.64769"
     inkscape:window-x="0"
     inkscape:window-y="0"
     inkscape:window-maximized="0"
     inkscape:current-layer="svg4310"
     units="mm"
     inkscape:document-units="mm" />
  <path
     inkscape:connector-curvature="0"
     style="fill:none;stroke:#000000;stroke-width:0.354;stroke-miterlimit:4;stroke-dasharray:none;stroke-opacity:1"
     d="m 1469.092,467.72312 c -1.9241,5.44552 -10.8619,18.43 -15.4467,22.44068 -6.9189,6.05238 -16.4254,10.41497 -27.9085,12.80727 -4.6012,0.95859 -54.0688,1.72914 -293.6629,4.57432 -158.47124,1.88186 -290.31918,3.43241 -292.99534,3.44567 -9.79633,0.0485 -18.70368,6.49224 -23.55589,17.04064 l -2.62027,5.69639 -0.88463,33.20009 c -1.93969,72.79187 -9.8041,172.50668 -22.13217,280.61992 -1.32121,11.58627 -1.33568,12.71171 -0.1728,13.41088 0.69814,0.41976 32.92814,15.66672 71.62209,33.88212 38.69395,18.2154 72.19215,34.3398 74.44052,35.83202 10.23101,6.79035 18.41665,18.6228 21.2559,30.72572 1.98972,8.48127 1.30848,21.46613 -1.44065,27.46171 -5.13771,11.20485 -18.70217,19.65645 -38.527,24.00475 -6.21964,1.3641 -11.06726,1.4738 -65.21452,1.4738 -53.5889,0 -58.87229,-0.1166 -62.98817,-1.3902 -2.47096,-0.7646 -5.49453,-2.2023 -6.71907,-3.1951 -1.22453,-0.9926 -4.67188,-3.3725 -7.66085,-5.2884 l -5.43438,-3.4836 -7.17955,7.8644 c -12.45437,13.6422 -17.55136,18.5357 -19.30651,18.5357 -1.16855,0 -4.1085,-2.9868 -9.92058,-10.0787 -4.54294,-5.5431 -9.49391,-11.4854 -11.00218,-13.205 l -2.7423,-3.1264 -8.12064,5.4062 c -4.46634,2.9734 -9.76763,5.9723 -11.78063,6.6642 -3.17689,1.0919 -10.91192,1.2946 -58.59832,1.5353 -58.36623,0.2946 -62.6521,0.1 -75.94132,-3.4569 -18.16611,-4.8616 -29.47241,-13.6388 -33.26478,-25.82366 -3.05496,-9.81559 -1.26343,-25.14185 4.20905,-36.00777 3.03676,-6.02966 10.35859,-14.19988 16.4051,-18.30598 2.45118,-1.66457 36.45969,-18.05275 75.57443,-36.41816 39.11475,-18.36542 71.35586,-33.61163 71.6469,-33.88046 0.29103,-0.26886 -0.32094,-7.95883 -1.35994,-17.08886 C 685.24545,734.45802 677.34633,631.22316 675.52816,554.28053 l -0.50435,-21.34292 -2.26701,-4.79759 c -4.8743,-10.31536 -14.00606,-17.02071 -23.42108,-17.19784 -2.52566,-0.0476 -134.42831,-1.59626 -293.11698,-3.44166 -307.122824,-3.57153 -291.708759,-3.21208 -303.527298,-7.07841 -10.858669,-3.55235 -19.098884,-9.63068 -25.757761,-19.00004 -7.745192,-10.89786 -9.039989,-14.21859 -9.039989,-23.18469 0,-6.51303 0.284161,-8.11599 2.141384,-12.07949 3.832077,-8.17802 14.722578,-18.02697 25.920622,-23.44156 3.846945,-1.86013 69.078432,-18.95814 259.583882,-68.04027 139.94515,-36.05571 254.56145,-65.67156 254.70288,-65.81299 0.19705,-0.19706 0.49277,-29.65241 0.34432,-34.29758 -0.016,-0.50274 -0.67656,-0.74479 -1.46777,-0.53791 -0.79121,0.20694 -1.87917,-0.1547 -2.41771,-0.80361 -0.8024,-0.96684 -0.16643,-3.08152 3.52296,-11.71449 l 4.50213,-10.5347 -0.44079,-12.64767 c -0.48783,-13.99716 0.0341,-16.41691 4.17727,-19.36711 2.59608,-1.84853 10.229,-3.952 14.34093,-3.952 2.28394,0 3.05912,-0.36719 3.46325,-1.64056 0.28639,-0.90225 0.39928,-1.7555 0.25089,-1.89605 -0.14839,-0.14054 -9.51841,0.44133 -20.82225,1.29315 -41.54335,3.13053 -49.64814,2.84674 -51.27889,-1.79558 -2.9047,-8.26904 5.36969,-10.32593 35.07406,-8.71915 8.91266,0.48212 21.40775,1.10929 27.76689,1.3937 l 11.56207,0.51713 0.98252,-2.97701 c 1.21029,-3.66727 7.53299,-10.36618 10.47681,-11.1003 4.86581,-1.21331 9.59154,1.99864 12.90514,8.77147 1.16427,2.37966 2.36084,4.47743 2.65906,4.66176 0.29822,0.18426 10.83564,-0.20907 23.4165,-0.87419 24.63346,-1.3023 34.81423,-1.09441 39.35723,0.80376 5.68335,2.37468 5.66913,8.10731 -0.026,10.48689 -3.56557,1.48982 -17.33668,1.21181 -43.18023,-0.87158 -9.48065,-0.76431 -17.4037,-1.2235 -17.60678,-1.02043 -0.20308,0.20308 -0.14494,0.95379 0.12919,1.66814 0.39601,1.03198 1.62437,1.29885 5.97869,1.29885 7.02715,0 10.65517,1.75596 13.30523,6.43986 1.86449,3.29543 1.95795,4.12724 2.20705,19.64592 l 0.26013,16.20482 2.80103,6.8344 c 3.24274,7.91205 3.23461,9.78344 -0.0423,9.72636 l -2.25707,-0.0395 0.49547,6.3632 c 0.27249,3.4997 0.49758,11.07633 0.5002,16.83695 l 0.005,10.474 19.65856,0 19.65856,0 0.48995,-2.96428 c 0.26949,-1.63037 0.49486,-7.41076 0.50084,-12.84529 0.0135,-12.26127 1.20805,-38.34027 2.80613,-61.26209 2.44544,-35.0756 6.22046,-61.13176 10.70806,-73.90976 1.29784,-3.69548 3.74313,-12.46988 5.43398,-19.49858 7.5103,-31.21979 16.49808,-50.759632 28.76709,-62.540925 8.55369,-8.213705 14.1969,-9.766205 21.77394,-5.990405 10.94774,5.455489 21.72455,21.415569 29.30508,43.399972 3.44175,9.981518 4.50843,13.798748 7.94313,28.425128 1.22508,5.21717 3.17686,11.97575 4.33728,15.01909 6.46011,16.94281 11.76036,64.20853 13.42938,119.75752 0.24172,8.04313 0.64304,18.62564 0.89196,23.51674 l 0.45264,8.89288 19.68398,0 19.68403,0 0,-8.57229 c 0,-4.71477 0.23391,-12.39449 0.51966,-17.06609 0.49232,-8.04605 0.44022,-8.48524 -0.98809,-8.33196 -4.47024,0.47973 -4.50092,-0.56488 -0.30046,-10.24951 l 3.18356,-7.33999 -0.0873,-15.12731 c -0.0913,-15.84214 0.30614,-18.34076 3.4562,-21.72394 2.8896,-3.10349 5.65319,-4.0749 11.59245,-4.0749 4.31587,0 5.70465,-0.27928 6.06551,-1.21979 0.25745,-0.67089 0.26916,-1.41876 0.0261,-1.66191 -0.24314,-0.24315 -8.20177,0.18395 -17.68577,0.94905 -9.48409,0.76511 -22.57949,1.52919 -29.10094,1.69788 -10.2473,0.26511 -12.23282,0.11405 -14.62387,-1.1126 -2.41011,-1.2364 -2.79776,-1.84633 -3.00747,-4.73237 -0.20514,-2.82153 0.0593,-3.5098 1.78419,-4.63979 4.11209,-2.69434 11.99198,-3.04327 38.75974,-1.71628 17.19655,0.85244 25.59397,0.99622 26.25284,0.44937 0.53285,-0.44219 1.21109,-1.56759 1.50728,-2.50082 1.6804,-5.29424 7.54038,-10.81249 11.47317,-10.80403 4.35467,0.01 11.69917,6.98467 13.05896,12.40253 0.5636,2.2455 -1.32129,2.21578 33.09079,0.52171 28.41465,-1.39875 36.18711,-1.08144 40.35199,1.64752 1.72458,1.12999 1.98926,1.81826 1.78417,4.63979 -0.20959,2.88327 -0.59972,3.49866 -3.00744,4.74391 -2.43658,1.26017 -4.27578,1.38491 -15.41434,1.04564 -6.95622,-0.21193 -21.71842,-1.08841 -32.80488,-1.94782 -11.08648,-0.85933 -20.43571,-1.30042 -20.77601,-0.98012 -0.3403,0.32031 -0.4101,1.12604 -0.15509,1.79067 0.32741,0.8531 2.13493,1.36366 6.1489,1.73669 6.73884,0.62638 11.72612,2.83449 14.1838,6.28002 1.66404,2.33295 1.8121,3.53851 2.20006,17.91557 l 0.41596,15.41434 3.77611,8.21331 c 2.07682,4.51735 3.59446,8.68641 3.37267,9.26457 -0.2219,0.57824 -1.30794,1.27828 -2.4135,1.55573 l -2.01003,0.5045 0,17.18082 0,17.18083 6.12622,1.6559 c 3.36941,0.91074 118.17648,30.53159 255.12688,65.82407 187.3667,48.28485 250.175,64.75959 253.7439,66.55746 11.4348,5.7604 21.7164,15.14319 25.5042,23.2745 2.669,5.72911 3.2585,15.90287 1.2509,21.58427 z"
     id="path8019" />
</svg>
