<?xml version="1.0" encoding="UTF-8" standalone="no"?>
<!-- Created with Inkscape (http://www.inkscape.org/) -->

<svg
   xmlns:dc="http://purl.org/dc/elements/1.1/"
   xmlns:cc="http://creativecommons.org/ns#"
   xmlns:rdf="http://www.w3.org/1999/02/22-rdf-syntax-ns#"
   xmlns:svg="http://www.w3.org/2000/svg"
   xmlns="http://www.w3.org/2000/svg"
   xmlns:sodipodi="http://sodipodi.sourceforge.net/DTD/sodipodi-0.dtd"
   xmlns:inkscape="http://www.inkscape.org/namespaces/inkscape"
   id="svg4187"
   version="1.1"
   inkscape:version="0.92.2 5c3e80d, 2017-08-06"
   width="420mm"
   height="297mm"
   viewBox="0 0 1488.189 1052.3622"
   sodipodi:docname="Horsa_Glider.svg">
  <metadata
     id="metadata4193">
    <rdf:RDF>
      <cc:Work
         rdf:about="">
        <dc:format>image/svg+xml</dc:format>
        <dc:type
           rdf:resource="http://purl.org/dc/dcmitype/StillImage" />
        <dc:title />
      </cc:Work>
    </rdf:RDF>
  </metadata>
  <defs
     id="defs4191" />
  <sodipodi:namedview
     pagecolor="#ffffff"
     bordercolor="#666666"
     borderopacity="1"
     objecttolerance="10"
     gridtolerance="10"
     guidetolerance="10"
     inkscape:pageopacity="0"
     inkscape:pageshadow="2"
     inkscape:window-width="1267"
     inkscape:window-height="699"
     id="namedview4189"
     showgrid="false"
     inkscape:document-units="mm"
     fit-margin-top="0"
     fit-margin-left="0"
     fit-margin-right="0"
     fit-margin-bottom="0"
     units="mm"
     inkscape:zoom="0.50000001"
     inkscape:cx="819.24304"
     inkscape:cy="602.63419"
     inkscape:window-x="0"
     inkscape:window-y="0"
     inkscape:window-maximized="0"
     inkscape:current-layer="svg4187" />
  <path
     style="fill:none;stroke:#000000;stroke-width:0.35080078;stroke-miterlimit:4;stroke-dasharray:none;stroke-opacity:1"
     d="m 741.45233,22.868764 v 0.0019 l 0.008,-0.0019 z m 0,0.495018 -5.17643,0.641979 c -1.59259,0.602721 -8.05764,1.501669 -14.25306,2.306865 -2.23564,0.290546 -4.56621,0.626808 -6.82779,0.955231 l -18.96347,3.177016 c -2.24762,0.420601 -4.05146,1.413557 -4.88831,2.761277 -2.65401,4.274886 -7.33042,35.648382 -8.35732,56.070557 -0.13248,2.63449 -0.29478,4.940416 -0.45247,6.71176 h -0.57043 V 230.79796 c -0.002,0.30771 -0.005,0.56888 -0.008,0.87596 h 0.0213 v 102.34902 h -0.0696 v 1.33036 H 560.03177 c -2.07374,0.46953 -4.78588,1.07323 -7.9087,1.80218 -6.49303,1.51567 -21.04441,5.02851 -32.33672,7.80621 -72.39137,17.807 -90.10524,22.15585 -114.46345,28.10973 -14.96236,3.65722 -35.2878,8.57274 -45.16854,10.92135 -9.88073,2.34859 -20.01152,4.9244 -22.51175,5.7256 -2.50024,0.80129 -5.33221,1.45604 -6.29603,1.45604 -0.96383,0 -3.99977,0.6608 -6.74656,1.46766 -6.25799,1.83821 -12.48953,3.40991 -58.88985,14.84476 -20.60852,5.07875 -52.71429,12.99074 -71.34652,17.58477 -18.6324,4.59404 -35.26442,8.77556 -36.95819,9.29321 -3.73409,1.14118 -26.37487,6.7956 -34.90463,8.71504 -25.238122,5.67926 -30.567673,8.32599 -39.218649,19.48556 -5.644025,7.28066 -9.8864,23.29044 -7.665059,28.92961 0.160968,0.40889 0.362609,1.33873 0.589769,2.59498 l 8.813656,29.23512 -0.02707,-0.23398 3.59082,8.62029 c 5.89812,14.17248 19.685753,40.12136 25.354243,44.73346 0,0 3.96689,7.02896 6.98248,7.22032 l -0.24751,0.25911 h 558.22661 l 0.0406,34.12537 c 0.0279,24.04369 0.46062,38.53883 1.27236,42.60256 0.67671,3.38769 2.38994,15.6282 3.80545,27.20283 1.41553,11.57463 3.07311,24.74141 3.68364,29.25833 0.61068,4.51694 1.73688,13.06207 2.5041,18.99055 0.76722,5.92846 2.382,18.17089 3.58695,27.20477 1.20511,9.03386 2.57781,20.11993 3.05133,24.63685 0.47339,4.51693 1.60058,13.52618 2.50216,20.01926 2.35785,16.98156 4.50064,33.07797 5.74107,43.11498 2.53227,20.48631 4.05259,33.4556 4.0723,34.74028 0.0181,1.14501 -11.75181,1.24639 -70.0413,0.5917 -111.42795,-1.25151 -128.87095,-1.18324 -134.22554,0.55882 -9.91967,3.22732 -17.04361,10.6886 -20.03086,20.97257 -2.17239,7.47863 -2.52265,29.13493 -0.61684,38.09518 4.98126,23.41981 16.14845,43.9525 27.96277,51.41042 8.49984,5.36561 8.33861,5.35421 101.66256,6.09301 l 86.90289,0.6884 5.54576,-8.56232 c 3.04934,-4.71076 8.05817,-12.56861 11.13212,-17.46102 3.07382,-4.89242 6.20013,-10.50109 6.34629,-10.35672 0.54157,0.53793 1.8232,17.76367 3.33365,35.16766 1.09935,12.6681 0.73811,18.9303 0.52983,21.5506 -0.42226,5.3121 0.23243,8.8448 1.02484,11.2947 0.52231,0.5219 0.91055,1.0758 1.21048,1.7403 h 5.88415 c 0.31125,-0.7118 0.68838,-0.3077 1.16406,-0.7833 1.79249,-1.7925 1.9264,-4.0126 1.39224,-14.0228 -0.32456,-6.0821 -0.10698,-15.216 0.48729,-20.2978 0.98797,-8.45218 4.08488,-33.17531 4.30628,-34.38831 0.0509,-0.28236 0.40507,0.17796 0.78893,1.02484 0.58753,1.29677 3.37204,5.9307 13.84506,23.04738 0.67409,1.10167 2.64712,4.10459 4.38556,6.67308 l 3.15768,4.66981 12.75254,0.5434 c 7.01322,0.2994 35.18251,0.6658 62.59861,0.816 25.51339,0.1396 38.42455,0.1642 50.11487,1.0828 h 47.38258 c 9.76001,-1.0556 19.29885,-5.7568 25.36779,-12.66162 8.78714,-9.99793 16.78167,-27.92463 20.32671,-45.58235 1.26688,-6.31539 1.61263,-12.14445 1.30909,-22.07281 -0.36529,-11.82602 -0.73915,-14.18791 -3.05132,-19.13751 -2.76355,-5.91596 -5.55387,-9.35168 -10.50755,-12.92657 l -2.96819,-2.14057 0.0522,-0.0522 -6.29989,-2.21406 c -0.62267,0.66139 -0.51716,0.0731 -0.81021,-0.0135 -0.76457,-0.22599 -21.94594,-0.62089 -47.07127,-0.87789 -2.66496,-0.0273 -4.32005,-0.0617 -6.86645,-0.0909 h -80.91238 v -0.1605 h -15.47128 c -28.40341,0 -51.8437,-0.34806 -52.09106,-0.77153 -0.42279,-0.72333 0.28888,-5.89214 5.55348,-40.29377 1.16652,-7.62231 2.75733,-18.47635 3.53476,-24.1225 0.77724,-5.64617 2.35011,-16.50212 3.49413,-24.12443 1.14384,-7.62231 3.23519,-21.94354 4.6466,-31.8243 1.41126,-9.88078 3.08407,-21.12619 3.72037,-24.99072 0.63649,-3.86456 1.78663,-11.71744 2.55632,-17.45135 1.54116,-11.48425 3.33955,-23.79179 6.5474,-44.81661 4.62352,-30.30347 5.17836,-36.46501 5.17836,-57.52274 0,-11.66493 0.30557,-25.48544 0.67678,-30.71438 l 0.53176,-7.48136 h 308.75257 c 43.4108,0.28226 94.6433,0.61328 141.7939,0.88949 l 111.4489,0.65359 3.1229,-3.9853 c 15.5312,-19.81663 27.4629,-42.85879 34.2143,-65.97673 l 1.3265,-3.81319 3.5927,-15.74393 c 0,0 -0.4897,-8.14759 -0.7194,-8.48106 -0.2776,-0.40331 -0.3694,-0.39062 -0.3964,-0.32099 -0.01,-0.12554 -0.038,-0.39044 -0.1527,-1.01324 -2.378,-12.98456 -13.7723,-25.54105 -26.7155,-29.44202 -1.7072,-0.51534 -9.1138,-2.50323 -16.4536,-4.4165 -19.0692,-4.97061 -27.6103,-7.22778 -36.9581,-9.77082 -4.517,-1.2288 -19.5306,-5.14261 -33.3636,-8.69958 -13.833,-3.557 -29.5388,-7.63775 -34.9027,-9.06696 -26.4469,-7.04676 -35.7196,-9.49889 -51.3272,-13.56855 -19.1081,-4.98233 -38.1052,-10.01162 -48.7633,-12.91109 -3.9524,-1.07518 -9.9584,-2.61981 -13.3462,-3.43419 -3.3878,-0.81438 -9.8541,-2.48004 -14.371,-3.69911 -4.517,-1.21905 -10.7533,-2.82943 -13.8586,-3.57728 -3.1056,-0.74786 -8.8796,-2.24588 -12.8318,-3.32785 -12.5574,-3.43763 -34.2142,-9.15815 -56.9755,-15.0536 -12.1394,-3.14422 -28.3092,-7.37944 -35.9314,-9.41309 -7.62253,-2.03366 -19.86295,-5.23343 -27.20286,-7.10817 -14.57326,-3.72219 -24.3264,-6.29065 -36.95819,-9.73408 -27.50743,-7.49836 -21.25943,-6.96898 -83.8535,-7.11976 -30.04572,-0.0725 -54.74909,-0.28709 -56.71446,-0.48728 V 165.15575 l 0.28811,-33.50659 0.14889,-0.12182 v -9.65287 c 0,-33.320006 -0.98767,-50.619581 -4.13031,-72.454518 -2.30921,-16.043401 -3.5114,-18.104401 -11.1534,-19.114303 -2.60518,-0.344274 -8.20084,-1.250403 -12.43541,-2.014882 -4.23475,-0.764477 -9.7768,-1.665072 -12.31746,-2.001346 -2.44143,-0.323115 -6.64764,-1.073656 -9.60646,-1.703561 l -7.23579,-1.111859 z"
     id="path10005"
     inkscape:connector-curvature="0" />
</svg>
